<svg width="258" height="71" viewBox="0 0 258 71" fill="none" xmlns="http://www.w3.org/2000/svg">
<path d="M254.114 15C252.032 15 250.344 16.6981 250.344 18.7608C250.344 20.8242 252.046 22.5224 254.114 22.5224C256.182 22.5224 257.885 20.8384 257.885 18.7608C257.885 16.6981 256.182 15 254.114 15ZM257.397 18.7608C257.394 20.5566 255.914 22.0341 254.114 22.0371C254.113 22.0371 254.112 22.0371 254.11 22.0371C252.312 22.0371 250.832 20.5603 250.832 18.766C250.832 18.7645 250.832 18.7623 250.832 18.7608C250.834 16.965 252.314 15.4883 254.114 15.4853C255.907 15.4853 257.397 16.9561 257.397 18.7608ZM255.68 20.5656C254.814 18.9733 254.89 19.1097 254.86 19.0642C255.269 18.8823 255.528 18.4574 255.528 17.9572C255.528 17.0776 254.982 16.7436 254.099 16.7436H253.02C252.921 16.7451 252.839 16.8264 252.838 16.9255V20.6416C252.838 20.7475 252.928 20.8235 253.02 20.8235H253.279C253.281 20.8235 253.283 20.8235 253.285 20.8235C253.381 20.8235 253.46 20.7445 253.46 20.6483C253.46 20.6461 253.46 20.6438 253.46 20.6416V19.2163H254.236L255.056 20.7325C255.087 20.7929 255.163 20.8235 255.225 20.8235H255.512C255.649 20.8235 255.741 20.6871 255.68 20.5656ZM254.267 18.6244H253.46V17.3199H254.114C254.433 17.3199 254.906 17.3355 254.906 17.9721C254.906 18.3821 254.663 18.6244 254.267 18.6244ZM93 48.0743H102.2L103.695 43.9743H113.782L115.276 48.0743H124.662L113.035 20.1198H104.629L93 48.0743ZM105.796 38.1508L108.738 29.7645L111.68 38.1508H105.796ZM127.497 48.0743H135.576V34.7031C135.576 34.0508 135.389 31.488 135.389 31.3016C135.483 31.6281 136.183 34.0508 136.417 34.7031L141.039 48.0743H147.297L151.921 34.7031C152.154 34.0508 152.855 31.5349 152.948 31.3016C152.901 31.488 152.762 34.0508 152.762 34.7031V48.0743H161.027V20.1198H150.427L144.356 37.7781L138.285 20.1198H127.497V48.0743ZM163.78 48.0743H172.98L174.474 43.9743H184.561L186.056 48.0743H195.442L183.814 20.1198H175.408L163.78 48.0743ZM176.575 38.1508L179.518 29.7645L182.46 38.1508H176.575ZM203 48.0743H210.939L222.567 20.1198H213.087L207.063 36.0076L201.039 20.1198H191.371L203 48.0743ZM218.414 48.0743H227.614L229.109 43.9743H239.196L240.69 48.0743H250.076L238.448 20.1198H230.043L218.414 48.0743ZM231.21 38.1508L234.152 29.7645L237.094 38.1508H231.21Z" fill="#8E14D8"/>
<path fill-rule="evenodd" clip-rule="evenodd" d="M38.3749 4.8988C32.4844 4.91822 26.9418 7.87935 24.3151 13.4604C22.7031 17.0563 21.8348 24.4942 28.542 29.6775C28.542 29.6775 35.9183 35.7819 38.3749 37.651L38.4937 37.5603C41.0598 35.5929 48.2078 29.6775 48.2078 29.6775C54.9151 24.4942 54.0468 17.0563 52.4348 13.4604C49.8286 7.92276 44.3517 4.96461 38.5129 4.89994L38.3749 4.8988ZM38.2935 42.3786C37.4497 42.3668 36.5508 42.2402 35.7829 41.7701C35.7829 41.7701 28.0874 35.887 26.9188 34.9755C25.75 34.064 22.7441 31.8994 20.6979 28.7096C18.6515 25.5195 17.9364 22.7055 17.8557 18.7977C17.796 15.9077 19.0291 10.9609 22.5168 7.06337C25.8813 3.07583 30.9813 0.72023 35.7979 0.170004C36.6407 0.0541544 37.5016 0.00205649 38.3749 0L38.5384 0.000913998C39.3559 0.00891148 40.1619 0.0614664 40.952 0.170004C45.7685 0.72023 50.8685 3.07583 54.2331 7.06337C57.7208 10.9609 58.9539 15.9077 58.8942 18.7977C58.8135 22.7055 58.0984 25.5195 56.052 28.7096C54.0058 31.8994 50.9999 34.064 49.8311 34.9755C48.6625 35.887 40.967 41.7701 40.967 41.7701C40.1742 42.2553 39.2423 42.3745 38.3749 42.3793L38.2935 42.3786Z" fill="url(#paint0_linear)"/>
<path fill-rule="evenodd" clip-rule="evenodd" d="M70.0908 57.4107C72.9303 52.2387 73.0338 45.9452 69.4369 40.9367C67.0804 37.7801 61.0104 33.4124 53.2345 36.7773C53.2345 36.7773 44.3303 40.2819 41.5079 41.5286L41.5294 41.6767C42.002 44.8797 43.6982 54.0128 43.6982 54.0128C44.9692 62.4047 51.8813 65.2505 55.8012 65.5813C61.8977 65.9825 67.1352 62.6169 70.0229 57.531L70.0908 57.4107ZM37.4215 39.1648C37.8411 38.4309 38.3874 37.7046 39.17 37.2594C39.17 37.2594 48.0359 33.3678 49.398 32.7856C50.7603 32.2033 54.1069 30.6184 57.8829 30.3719C61.6593 30.1253 64.4618 30.8632 67.9113 32.6874C70.4624 34.0365 74.1815 37.516 75.8917 42.4626C77.7401 47.345 77.3227 52.957 75.4673 57.4452C75.1597 58.24 74.7877 59.0198 74.366 59.7862L74.2859 59.929C73.8826 60.6416 73.4459 61.3225 72.968 61.9623C70.1522 65.9168 65.6234 69.2443 60.5119 70.2595C55.4193 71.4262 50.5042 70.1082 48.011 68.6544C44.6398 66.6887 42.5308 64.6974 40.7392 61.357C38.9476 58.0168 38.5162 54.3328 38.2875 52.8664C38.0587 51.4002 36.6561 41.8029 36.6561 41.8029C36.6172 40.8728 36.965 39.9983 37.3814 39.2358L37.4215 39.1648Z" fill="url(#paint1_linear)"/>
<path fill-rule="evenodd" clip-rule="evenodd" d="M7.22632 57.6391C4.38686 52.4671 4.28336 46.1736 7.88026 41.1651C10.2367 38.0085 16.3067 33.6408 24.0827 37.0057C24.0827 37.0057 32.9868 40.5103 35.8093 41.757L35.7877 41.9051C35.3151 45.1081 33.6189 54.2412 33.6189 54.2412C32.3479 62.6331 25.4358 65.4789 21.5159 65.8097C15.4194 66.2109 10.182 62.8453 7.29421 57.7594L7.22632 57.6391ZM39.8957 39.3932C39.4761 38.6593 38.9297 37.933 38.1472 37.4878C38.1472 37.4878 29.2812 33.5962 27.9191 33.014C26.5569 32.4316 23.2102 30.8468 19.4342 30.6003C15.6579 30.3537 12.8553 31.0916 9.40586 32.9158C6.85472 34.2649 3.13559 37.7443 1.42546 42.691C-0.422942 47.5734 -0.00561087 53.1854 1.84984 57.6736C2.1574 58.4684 2.52944 59.2482 2.95112 60.0146L3.03119 60.1574C3.43456 60.87 3.87128 61.5509 4.34912 62.1907C7.16494 66.1452 11.6938 69.4727 16.8052 70.4879C21.8979 71.6546 26.8129 70.3366 29.3061 68.8828C32.6773 66.9171 34.7863 64.9258 36.578 61.5854C38.3695 58.2452 38.8009 54.5612 39.0296 53.0948C39.2584 51.6286 40.661 42.0313 40.661 42.0313C40.6999 41.1012 40.3521 40.2267 39.9357 39.4642L39.8957 39.3932Z" fill="url(#paint2_linear)"/>
<path d="M54.3359 30.9617L48.9776 29.0194C47.5056 30.2733 38.4389 37.5881 38.2609 37.7024C36.7788 38.7306 36.102 40.3345 35.9808 40.9014C35.6388 42.5009 34.9547 46.9566 34.9547 46.9566L40.3131 44.5574C41.5671 39.3019 46.5835 37.2454 54.3359 30.9617Z" fill="url(#paint3_linear)"/>
<defs>
<linearGradient id="paint0_linear" x1="38.3749" y1="28.9052" x2="35.1581" y2="-2.71629" gradientUnits="userSpaceOnUse">
<stop stop-color="#8E14D8"/>
<stop offset="1" stop-color="#E85BFF"/>
</linearGradient>
<linearGradient id="paint1_linear" x1="65.1808" y1="54.4655" x2="37.6288" y2="37.0185" gradientUnits="userSpaceOnUse">
<stop stop-color="#3AA5BD"/>
<stop offset="1" stop-color="#9A14D9"/>
</linearGradient>
<linearGradient id="paint2_linear" x1="-7.33572" y1="50.4309" x2="35.3037" y2="44.3962" gradientUnits="userSpaceOnUse">
<stop stop-color="#FC9F78"/>
<stop offset="0.0001" stop-color="#ED895F"/>
<stop offset="1" stop-color="#AF13E6"/>
</linearGradient>
<linearGradient id="paint3_linear" x1="44.8733" y1="29.4764" x2="44.8733" y2="46.1569" gradientUnits="userSpaceOnUse">
<stop stop-color="#8E14D9"/>
<stop offset="1" stop-color="#B218E0"/>
</linearGradient>
</defs>
</svg>
